HIERARCHY
ROOT Hip
{
	OFFSET	0.00  0.00  0.00 
	CHANNELS 6 Xposition Yposition Zposition Xrotation Zrotation Yrotation
	JOINT Abdomen
	{
		OFFSET	0.000000 0.000000 0.000000
		CHANNELS 3 Xrotation Zrotation Yrotation
		JOINT Chest
		{
			OFFSET	0.000000 5.018152 -1.882229
			CHANNELS 3 Xrotation Zrotation Yrotation
			JOINT neckDummy
			{
				OFFSET	0.000000 8.316447 0.784897
				CHANNELS 3 Xrotation Yrotation Zrotation
				JOINT Neck
				{
					OFFSET	0.000000 2.280413 -0.392801
					CHANNELS 3 Xrotation Zrotation Yrotation
					JOINT Head
					{
						OFFSET	0.000000 3.496879 0.529469
						CHANNELS 3 Xrotation Zrotation Yrotation
						End Site
						{
							OFFSET 0.000000 10.353750 0.000000
						}
					}
				}
			}
			JOINT Left Collar
			{
				OFFSET	0.599237 8.316447 0.784897
				CHANNELS 3 Yrotation Zrotation Xrotation
				JOINT Left Shoulder
				{
					OFFSET	6.421198 0.010146 -0.332128
					CHANNELS 3 Zrotation Yrotation Xrotation
					JOINT Left Forearm
					{
						OFFSET	10.552783 0.025574 0.125508
						CHANNELS 3 Yrotation Zrotation Xrotation
						JOINT Left Hand
						{
							OFFSET	11.035963 0.319619 0.041520
							CHANNELS 3 Zrotation Yrotation Xrotation
							End Site
							{
								OFFSET 10.353753 0.000000 0.000000
							}
						}
					}
				}
			}
			JOINT Right Collar
			{
				OFFSET	-0.599237 8.316447 0.784897
				CHANNELS 3 Yrotation Zrotation Xrotation
				JOINT Right Shoulder
				{
					OFFSET	-6.421198 0.010146 -0.332128
					CHANNELS 3 Zrotation Yrotation Xrotation
					JOINT Right Forearm
					{
						OFFSET	-10.552783 0.025574 0.125508
						CHANNELS 3 Yrotation Zrotation Xrotation
						JOINT Right Hand
						{
							OFFSET	-11.035963 0.319619 0.041520
							CHANNELS 3 Zrotation Yrotation Xrotation
							End Site
							{
								OFFSET -10.353753 0.000000 0.000000
							}
						}
					}
				}
			}
		}
	}
	JOINT Left Thigh
	{
		OFFSET	4.500466 -6.400484 -1.832696
		CHANNELS 3 Xrotation Zrotation Yrotation
		JOINT Left Shin
		{
			OFFSET	-1.359117 -18.918689 1.179887
			CHANNELS 3 Xrotation Zrotation Yrotation
			JOINT Left Foot
			{
				OFFSET	-0.652380 -17.215187 -0.312137
				CHANNELS 3 Xrotation Yrotation Zrotation
				End Site
				{
					OFFSET 0.000000 0.000000 10.353752
				}
			}
		}
	}
	JOINT Right Thigh
	{
		OFFSET	-4.500466 -6.400484 -1.832696
		CHANNELS 3 Xrotation Zrotation Yrotation
		JOINT Right Shin
		{
			OFFSET	1.359117 -18.918689 1.179887
			CHANNELS 3 Xrotation Zrotation Yrotation
			JOINT Right Foot
			{
				OFFSET	0.652380 -17.215187 -0.312137
				CHANNELS 3 Xrotation Yrotation Zrotation
				End Site
				{
					OFFSET 0.000000 0.000000 10.353752
				}
			}
		}
	}
}
MOTION
Frames:     17
Frame Time: 0.041667
0.000000 31.473321 -1.621306 10.939645 1.522212 4.663656 14.800600 -2.768740 1.285670 9.889380 -1.461390 1.759090 0.000000 0.000000 0.000000 6.069687 -0.892544 3.209268 -17.076456 1.443511 -4.406422 0.000000 0.000000 0.000000 -79.999100 -40.143200 -1.620960 -135.620377 -7.752071 -42.840012 -27.207342 3.562956 -4.544264 0.000000 0.000000 0.000000 58.025742 43.814377 -46.867832 146.967987 31.633192 -70.415176 0.060052 -0.165207 0.175693 -44.956982 24.936874 1.777175 79.396187 -6.648720 -6.775169 -39.721870 10.126826 -14.989405 -80.872055 -31.049917 1.189814 69.121872 5.092500 6.325271 0.697186 1.613691 1.220470 
0.000000 31.553461 -1.621306 11.087155 2.035357 4.658861 14.800600 -2.768740 1.285670 9.889380 -1.461390 1.759090 0.000000 0.000000 0.000000 6.296297 -1.561321 3.195167 -18.015612 0.785474 -4.866980 0.000000 0.000000 0.000000 -80.004036 -40.145374 -1.972975 -135.620377 -7.752101 -42.840092 -27.778522 3.214995 -4.310396 0.000000 0.000000 0.000000 58.030258 43.424969 -46.909721 146.967987 31.633205 -70.415215 0.060036 -0.165213 0.175693 -44.555405 24.378260 2.369877 78.867897 -6.824177 -6.658173 -39.540863 10.121509 -14.831827 -80.868088 -31.223473 1.497526 68.586517 5.091223 6.435145 0.841369 1.339817 1.395514 
0.000000 31.606582 -1.621306 11.278351 2.567752 4.656453 14.800600 -2.768740 1.285670 9.889380 -1.461390 1.759090 0.000000 0.000000 0.000000 6.583485 -2.408878 3.177296 -19.748249 0.145413 -5.511372 0.000000 0.000000 0.000000 -79.824165 -39.791668 -2.204406 -135.593002 -7.461223 -42.465816 -28.373642 2.529911 -4.325289 0.000000 0.000000 0.000000 58.016434 42.817081 -46.814243 146.817200 31.757935 -70.243607 0.109466 -0.137538 0.175649 -44.466583 24.078564 2.706258 78.354889 -7.350074 -6.121631 -38.968048 9.393229 -14.781561 -81.081375 -31.416237 2.032699 68.233627 5.267960 6.335934 0.996608 1.448064 1.216409 
0.000000 31.632285 -1.621306 11.501407 3.094010 4.656364 14.800600 -2.768740 1.285670 9.889380 -1.461390 1.759090 0.000000 0.000000 0.000000 6.917225 -3.393821 3.156528 -22.111172 -0.457973 -6.291580 0.000000 0.000000 0.000000 -79.801544 -39.725330 -2.984243 -135.593002 -7.461223 -42.465813 -29.127451 1.830671 -4.161272 0.000000 0.000000 0.000000 58.185993 41.979565 -46.917530 146.968002 31.633211 -70.415237 0.060054 -0.165206 0.175693 -44.278255 23.546858 3.090814 78.002174 -7.519711 -6.022503 -38.908054 9.652723 -14.698825 -81.281136 -31.602791 2.401220 68.057167 5.267409 6.314677 0.914839 1.501097 1.390559 
0.000000 31.629885 -1.621306 11.744825 3.588681 4.658551 14.800600 -2.768740 1.285670 9.889380 -1.461390 1.759090 0.000000 0.000000 0.000000 7.283705 -4.475388 3.133723 -24.947702 -1.005603 -7.160991 0.000000 0.000000 0.000000 -79.413620 -39.346691 -3.665263 -135.593002 -7.461219 -42.465813 -29.869127 0.954219 -4.293405 0.000000 0.000000 0.000000 58.193062 40.789764 -46.686829 146.730743 31.660349 -70.018379 0.162554 -0.066901 0.351467 -44.228184 23.162996 3.384063 77.649727 -7.873983 -5.891788 -38.094753 9.219434 -14.747847 -81.638084 -31.953650 2.630847 67.874138 5.278559 6.473814 1.119636 1.787822 0.857976 
0.000000 31.598405 -1.621306 11.997320 4.025990 4.662993 14.800600 -2.768740 1.285670 9.889380 -1.461390 1.759090 0.000000 0.000000 0.000000 7.669264 -5.613260 3.109731 -28.106066 -1.477819 -8.073916 0.000000 0.000000 0.000000 -79.028656 -38.969330 -4.342205 -135.593002 -7.461219 -42.465813 -30.761765 0.077219 -4.414792 0.000000 0.000000 0.000000 58.361828 39.823647 -46.898399 146.968002 31.633209 -70.415230 0.060036 -0.165213 0.175693 -44.360092 22.787386 3.822100 77.651062 -8.035246 -5.852191 -38.298210 9.108562 -14.598419 -82.233063 -32.156338 2.951172 68.037895 5.458549 6.784546 0.897616 1.511435 0.687113 
0.000000 31.536573 -1.621306 12.247699 4.379568 4.669695 14.800600 -2.768740 1.285670 9.889380 -1.461390 1.759090 0.000000 0.000000 0.000000 8.060328 -6.767380 3.085396 -31.437817 -1.854186 -8.985118 0.000000 0.000000 0.000000 -78.862617 -38.623589 -5.268451 -135.593002 -7.461222 -42.465813 -31.627396 -0.973433 -4.295732 0.000000 0.000000 0.000000 58.361267 38.505543 -46.947582 146.895569 31.550695 -70.234367 0.109235 -0.137720 -0.000131 -44.518276 22.424078 3.918492 77.828751 -8.225368 -5.847768 -38.125568 9.060833 -14.632540 -82.687614 -32.307816 3.802388 67.690712 5.622481 6.501181 1.304910 1.657511 1.384377 
0.000000 31.442796 -1.621306 12.484749 4.622177 4.678683 14.800600 -2.768740 1.285670 9.889380 -1.461390 1.759090 0.000000 0.000000 0.000000 8.443349 -7.897762 3.061562 -34.796310 -2.113272 -9.849339 0.000000 0.000000 0.000000 -78.484428 -38.249809 -6.114543 -135.593002 -7.461220 -42.465809 -32.287899 -2.018997 -4.338813 0.000000 0.000000 0.000000 58.533737 37.397511 -47.020756 146.780350 31.407631 -70.329590 0.042003 -0.170690 0.175718 -44.972126 22.308035 3.939102 78.178291 -8.402697 -6.047686 -38.456528 9.225053 -14.539948 -83.286674 -32.510933 4.130456 67.860428 5.797071 6.635328 1.292485 1.667198 1.032515 
0.000000 31.315156 -1.621306 12.697116 4.725432 4.690007 14.800600 -2.768740 1.285670 9.889380 -1.461390 1.759090 0.000000 0.000000 0.000000 8.804741 -8.964314 3.039073 -38.035172 -2.232434 -10.620834 0.000000 0.000000 0.000000 -78.106743 -37.876034 -6.780468 -135.593002 -7.461222 -42.465813 -33.271908 -3.087489 -4.353253 0.000000 0.000000 0.000000 58.704887 36.097729 -46.987576 146.780731 31.408033 -70.330925 0.042261 -0.170627 0.175717 -45.401997 22.254684 3.850300 78.699539 -8.578807 -6.453197 -38.453011 9.244917 -14.355637 -83.682945 -32.637005 4.311035 68.212868 5.971937 6.620122 1.278942 1.893929 0.853517 
0.000000 31.151378 -1.621306 12.873195 4.659506 4.703743 14.800600 -2.768740 1.285670 9.889380 -1.461390 1.759090 0.000000 0.000000 0.000000 9.130820 -9.926649 3.018782 -41.006794 -2.187580 -11.252903 0.000000 0.000000 0.000000 -77.942482 -37.531925 -7.523018 -135.593002 -7.461219 -42.465813 -33.722801 -3.950015 -4.435027 0.000000 0.000000 0.000000 58.880280 35.076035 -46.847664 146.781342 31.408651 -70.333153 0.042852 -0.170479 0.175716 -46.272511 22.600084 3.590859 79.762550 -8.226443 -6.719582 -38.791084 9.376877 -14.624386 -84.473228 -32.668095 4.220366 68.913712 5.970644 6.882114 1.118742 1.788382 0.682170 
0.000000 30.948820 -1.621306 13.001000 4.392820 4.719990 14.800600 -2.768740 1.285670 9.889380 -1.461390 1.759090 0.000000 0.000000 0.000000 9.407740 -10.743900 3.001550 -43.560799 -1.952920 -11.697400 0.000000 0.000000 0.000000 -77.568794 -37.160561 -8.182000 -135.593002 -7.461190 -42.465736 -34.158348 -4.805307 -4.322803 0.000000 0.000000 0.000000 59.056622 34.043289 -46.886257 146.781784 31.409134 -70.334717 0.043144 -0.170405 0.175716 -46.876976 22.646130 3.343519 80.645531 -7.883358 -6.937078 -39.509682 9.406152 -14.379025 -85.104240 -32.643715 4.491258 69.443787 5.972501 6.951400 1.244824 1.703081 1.031322 
0.000000 30.708886 -1.621306 13.072325 3.912154 4.738574 14.800600 -2.768740 1.285670 9.889380 -1.461390 1.759090 0.000000 0.000000 0.000000 9.624448 -11.383456 2.988065 -45.577278 -1.513641 -11.918891 0.000000 0.000000 0.000000 -77.406509 -36.818325 -8.919788 -135.593002 -7.461223 -42.465813 -34.572884 -5.694900 -4.386693 0.000000 0.000000 0.000000 59.232468 32.997875 -46.926785 146.782257 31.409618 -70.336342 0.043430 -0.170333 0.175716 -47.918591 23.167534 2.629676 81.874329 -7.881559 -7.508173 -39.957664 9.860011 -14.345987 -85.689766 -32.666100 4.347240 70.150154 6.148783 6.988820 1.263239 1.904414 0.501579 
0.000000 30.450413 -1.621306 13.095473 3.283865 4.758152 14.800600 -2.768740 1.285670 9.889380 -1.461390 1.759090 0.000000 0.000000 0.000000 9.781713 -11.847580 2.978279 -47.069988 -0.904599 -11.938275 0.000000 0.000000 0.000000 -77.226952 -36.636402 -9.686582 -135.620377 -7.752102 -42.840088 -34.817162 -6.430462 -4.134771 0.000000 0.000000 0.000000 59.235451 32.327789 -46.823616 146.782578 31.409964 -70.337471 0.043625 -0.170283 0.175715 -48.964108 23.691698 1.902901 83.636284 -7.363838 -7.902804 -40.888367 9.791560 -14.624644 -86.654488 -32.694214 3.989490 71.387222 5.978915 7.209044 1.135582 1.565109 -0.018103 
0.000000 30.196499 -1.621306 13.082529 2.593217 4.777091 14.800600 -2.768740 1.285670 9.889380 -1.461390 1.759090 0.000000 0.000000 0.000000 9.883050 -12.146649 2.971973 -48.082062 -0.171834 -11.789021 0.000000 0.000000 0.000000 -77.038643 -36.450634 -9.748008 -135.593018 -7.461227 -42.465816 -34.556469 -6.915557 -4.533734 0.000000 0.000000 0.000000 59.413521 31.814064 -46.899246 146.782837 31.410231 -70.338364 0.043786 -0.170242 0.175715 -49.972977 24.371223 0.914556 85.214905 -7.019660 -8.394995 -41.769108 9.930685 -14.662675 -86.892731 -32.304203 3.830489 72.265060 6.148544 7.444788 0.949556 1.037298 0.165275 
0.000000 29.970287 -1.621306 13.045200 1.924830 4.793750 14.800600 -2.768740 1.285670 9.889380 -1.461390 1.759090 0.000000 0.000000 0.000000 9.931720 -12.290284 2.968944 -48.651642 0.639892 -11.502842 0.000000 0.000000 0.000000 -77.063530 -36.294331 -10.244869 -135.620377 -7.752101 -42.840092 -34.483253 -7.314228 -4.234681 0.000000 0.000000 0.000000 59.403091 31.390753 -47.113186 146.795288 31.713549 -70.662643 0.099767 -0.144726 0.175655 -51.012878 24.893927 0.331313 86.608955 -6.495482 -8.861356 -42.557735 10.514637 -14.351638 -87.483002 -32.149151 3.525676 73.154121 5.973214 7.440421 0.833682 1.132527 0.518198 
0.000000 29.790611 -1.621306 12.993113 1.347766 4.806797 14.800600 -2.768740 1.285670 9.889380 -1.461390 1.759090 0.000000 0.000000 0.000000 9.930737 -12.287388 2.969005 -48.812309 1.486639 -11.110043 0.000000 0.000000 0.000000 -76.853714 -36.265697 -9.984198 -135.593018 -7.461226 -42.465813 -33.882294 -7.625578 -4.367443 0.000000 0.000000 0.000000 59.403103 31.390738 -47.113182 146.795258 31.713528 -70.662582 0.099771 -0.144723 0.175655 -51.843636 25.484545 -0.359159 87.646072 -6.148755 -9.412845 -43.071205 10.684076 -14.577217 -87.832458 -32.147472 2.985298 73.865601 5.802902 7.413374 0.902485 1.299421 -0.013686 
0.000000 29.658385 -1.621306 12.928419 0.868847 4.816182 14.800600 -2.768740 1.285670 9.889380 -1.461390 1.759090 0.000000 0.000000 0.000000 9.882895 -12.146191 2.971982 -48.593395 2.324826 -10.639818 0.000000 0.000000 0.000000 -77.063530 -36.294342 -10.244867 -135.620377 -7.752108 -42.840092 -33.122700 -7.801013 -4.361639 0.000000 0.000000 0.000000 59.403111 31.390734 -47.113194 146.795273 31.713524 -70.662582 0.099749 -0.144739 0.175655 -52.492222 25.986177 -0.902995 88.529053 -6.150984 -9.564432 -43.336872 10.286420 -14.711259 -88.043350 -31.987583 2.895479 74.390663 5.973482 7.608424 0.748797 0.976431 0.342961 
